<?xml version="1.0" standalone="no"?>
<!DOCTYPE svg PUBLIC "-//W3C//DTD SVG 20010904//EN"
 "http://www.w3.org/TR/2001/REC-SVG-20010904/DTD/svg10.dtd">
<svg version="1.0" xmlns="http://www.w3.org/2000/svg"
 width="193.000000pt" height="39.000000pt" viewBox="0 0 193.000000 39.000000"
 preserveAspectRatio="xMidYMid meet">

<g transform="translate(0.000000,39.000000) scale(0.100000,-0.100000)"
fill="#000000" stroke="none">
<path d="M80 368 c-53 -27 -92 -87 -75 -114 14 -23 29 -22 33 2 5 27 60 81 95
93 34 12 34 22 -9 -102 -22 -61 -34 -82 -56 -93 -55 -28 -63 -81 -19 -125 60
-60 139 -20 185 95 22 56 23 57 29 28 7 -34 30 -47 57 -32 14 7 25 7 40 -2 14
-9 22 -10 31 -1 8 8 19 8 41 -1 25 -9 32 -8 43 7 8 12 16 14 20 8 12 -21 23
-11 30 28 4 22 14 46 22 53 14 12 15 9 9 -24 -7 -41 6 -78 28 -78 17 0 42 28
55 63 15 38 -4 35 -26 -5 -21 -40 -30 -18 -14 37 10 39 -7 69 -34 59 -12 -5
-13 -1 -4 25 12 35 6 61 -14 61 -8 0 -21 -34 -36 -95 -13 -52 -25 -95 -28 -95
-3 0 -3 25 -1 55 3 38 1 59 -8 66 -10 8 -22 -6 -50 -63 l-38 -73 -8 50 c-5 28
-15 56 -22 64 -20 19 -54 5 -77 -32 -23 -39 -23 -39 1 53 14 54 16 78 8 87
-13 16 -28 17 -28 1 0 -6 -10 -47 -21 -91 -21 -78 -65 -147 -93 -147 -6 0 -5
4 3 9 12 8 12 13 3 24 -10 11 -6 33 20 105 27 76 30 93 19 106 -19 22 -59 20
-111 -6z m273 -135 c7 -11 -26 -76 -40 -81 -16 -5 -17 29 -1 63 11 24 32 33
41 18z m93 -101 c-4 -3 -11 -1 -17 5 -8 8 -8 15 2 26 12 13 14 13 17 -5 2 -11
1 -22 -2 -26z m-332 -8 c5 -13 15 -15 41 -11 41 7 42 5 14 -39 -25 -41 -60
-52 -94 -30 -32 21 -33 59 -3 80 28 20 34 20 42 0z"/>
<path d="M766 347 c-61 -65 -86 -200 -45 -251 27 -34 50 -33 93 4 19 17 40 28
49 25 10 -5 16 4 21 33 3 22 12 45 20 51 12 10 14 5 13 -35 -2 -56 21 -80 50
-52 15 16 18 16 34 2 14 -12 22 -13 38 -5 15 9 26 8 40 -1 15 -9 23 -9 34 1
12 10 19 10 35 0 16 -10 23 -10 35 0 12 10 19 10 36 0 16 -11 23 -10 38 3 15
14 20 14 31 2 16 -18 28 -18 44 0 11 12 16 12 31 -2 15 -13 22 -14 37 -4 11 6
26 9 33 6 10 -4 16 6 21 34 3 22 12 45 20 51 12 10 14 5 13 -35 -2 -56 20 -79
50 -51 17 15 21 15 35 1 13 -13 20 -14 37 -4 17 9 26 9 37 0 22 -19 41 -5 69
50 14 27 28 50 31 50 2 0 0 -9 -6 -19 -15 -29 -12 -81 5 -87 8 -4 26 1 39 10
22 14 25 14 30 -1 4 -9 14 -13 26 -10 11 3 20 1 20 -5 0 -5 -10 -9 -22 -8 -50
4 -68 -1 -84 -25 -15 -23 -15 -27 0 -50 22 -33 65 -33 104 0 22 18 32 21 40
13 9 -9 15 -9 24 0 8 8 6 16 -10 29 -20 18 -20 19 -5 89 15 69 14 104 -5 104
-6 0 -14 -19 -20 -43 -6 -23 -18 -51 -26 -62 -15 -20 -15 -20 -16 0 0 11 4 35
9 53 8 25 6 35 -7 48 -15 16 -17 14 -25 -17 -12 -51 -28 -89 -38 -89 -14 0
-11 16 12 55 17 29 19 38 9 50 -11 14 -15 14 -31 -1 -18 -16 -19 -16 -19 5 0
30 -24 22 -28 -10 -4 -27 -39 -109 -48 -109 -3 0 -5 12 -4 28 1 15 1 30 0 35
-5 15 -8 27 -9 41 -2 20 -27 27 -57 16 -16 -6 -32 -26 -45 -55 -29 -66 -40
-66 -33 -1 7 57 4 62 -33 57 -9 -1 -9 7 -3 30 9 31 0 59 -19 59 -4 0 -15 -34
-26 -75 -17 -71 -50 -143 -61 -133 -2 3 7 45 21 93 14 49 24 94 21 102 -11 27
-32 12 -42 -29 -7 -34 -13 -42 -27 -40 -29 5 -62 -23 -86 -72 -11 -25 -24 -46
-27 -46 -3 0 -3 22 1 48 5 37 3 51 -8 61 -17 13 -19 9 -32 -56 -3 -17 -13 -37
-22 -45 -14 -11 -15 -7 -9 38 6 39 4 53 -8 63 -13 11 -16 8 -21 -16 -20 -89
-44 -124 -46 -65 -1 44 -7 64 -23 80 -24 24 -63 1 -87 -53 -28 -64 -43 -69
-35 -11 8 51 -4 79 -30 69 -17 -6 -17 -3 -4 33 7 19 7 30 -1 40 -20 24 -26 16
-44 -58 -19 -81 -37 -122 -68 -155 -26 -29 -43 -29 -58 -2 -29 56 39 239 89
239 14 0 14 -3 -5 -62 -3 -12 0 -18 11 -18 17 0 29 35 24 71 -2 19 -10 25 -36
27 -27 3 -39 -3 -66 -31z m306 -132 c-5 -26 -30 -65 -42 -65 -14 0 -13 34 2
65 14 30 45 30 40 0z m284 -7 c-10 -50 -46 -81 -46 -39 0 34 19 71 36 71 13 0
15 -6 10 -32z m294 27 c0 -2 -7 -23 -16 -45 -17 -42 -44 -54 -44 -20 0 32 22
70 42 70 10 0 18 -2 18 -5z m190 -172 c0 -12 -33 -43 -45 -43 -21 0 -36 25
-23 38 13 13 68 17 68 5z"/>
</g>
</svg>
